<svg width="80" height="29" viewBox="0 0 80 29" fill="none" xmlns="http://www.w3.org/2000/svg">
<path d="M20.6312 6.37281C19.0538 5.37165 16.3226 4.86998 12.4377 4.86785C10.8506 4.86684 9.26523 4.97406 7.69261 5.18874C6.10771 5.39732 4.95185 5.58343 4.22824 5.73746L3.4438 9.95071H4.04894C5.16742 9.59042 6.3047 9.29154 7.45568 9.05543C8.43367 8.84338 9.42975 8.72625 10.4302 8.70568C12.252 8.70568 13.5968 8.895 14.442 9.2576C15.2873 9.6202 15.6235 10.2941 15.4474 11.2567L15.4282 11.3562C13.3812 11.4589 11.4601 11.6033 9.66494 11.7894C8.05231 11.9382 6.46221 12.273 4.92623 12.7874C3.72036 13.1772 2.61586 13.8304 1.6924 14.6999C0.843711 15.5537 0.28856 16.6563 0.107495 17.8478C-0.0593239 18.5537 -0.0315558 19.2916 0.18783 19.9829C0.407215 20.6743 0.809964 21.2926 1.353 21.7722C3.74477 23.9832 8.97975 23.7489 13.5808 21.8653C17.3525 20.3123 19.5809 18.5216 21.3964 17.3311L22.4274 10.9615C22.7731 8.8982 22.216 7.38362 20.6312 6.37281ZM14.1027 18.2939C12.6618 19.3206 9.29993 20.5144 7.79186 19.2918C7.53854 19.0578 7.34734 18.7642 7.23554 18.4375C7.12375 18.111 7.09486 17.7616 7.15151 17.421C7.24715 16.8978 7.51552 16.422 7.91353 16.0701C9.12703 14.9694 13.4943 14.6581 14.775 14.6453L14.1027 18.2939Z" fill="#4D99FF"/>
<path d="M64.2878 5.79526C62.6388 5.74392 57.0805 5.77921 57.0805 5.77921L50.5007 17.3313L48.4388 8.1923C48.2435 6.61673 46.9819 5.86906 44.9777 5.68936H40.4119L45.4355 23.3382H49.7419C52.1433 23.4088 53.5617 22.844 55.2427 20.0941L62.0017 9.56891" fill="#4D99FF"/>
<path d="M78.1708 6.90234C76.634 5.92897 73.9872 5.44122 70.2304 5.43909C68.6913 5.44594 67.1545 5.55313 65.6294 5.75996L65.2643 5.81131L63.0903 9.386L62.5364 10.2396C63.482 9.95077 64.4352 9.70797 65.3957 9.51115C66.3429 9.30482 67.308 9.1909 68.2772 9.17101C70.0447 9.17101 71.3479 9.35392 72.1674 9.7069C72.9872 10.0599 73.3138 10.7145 73.1281 11.6322L73.1089 11.7285C71.1269 11.8248 69.2667 11.9692 67.5184 12.1489C65.9557 12.289 64.4147 12.6121 62.9271 13.1115C61.7608 13.4837 60.6922 14.1118 59.7989 14.9502C58.9783 15.7779 58.4413 16.8453 58.2651 17.9986C57.9802 19.5293 58.3773 20.7968 59.4755 21.8012C61.7936 23.9448 66.8621 23.7264 71.3221 21.8911C74.9754 20.3892 77.1368 18.6501 78.8946 17.4884L79.8998 11.3274C80.2457 9.3475 79.7014 7.87142 78.1708 6.90234ZM71.844 18.4542C70.4481 19.4523 67.2047 20.6106 65.7254 19.417C65.482 19.1896 65.2983 18.9053 65.1911 18.5895C65.0838 18.2738 65.0563 17.9363 65.1107 17.6071C65.2045 17.1003 65.465 16.6394 65.8503 16.2979C67.0318 15.2262 71.2614 14.9245 72.4973 14.9149L71.844 18.4542Z" fill="#4D99FF"/>
<path d="M40.8476 0.00322742C38.5838 -0.0577414 37.0054 0.738062 36.618 2.9907L36.2466 4.86147H43.3225L44.1998 0.00322742H40.8476Z" fill="#4D99FF"/>
<path d="M33.589 18.2939C33.589 18.2939 32.811 18.2939 31.5271 18.3099C30.5666 18.3099 29.8013 18.3485 29.1834 18.0853C28.6326 17.8543 28.0308 17.2286 28.1875 16.0926C28.2485 15.6305 28.3412 15.0914 28.4469 14.4881L29.113 10.6375C30.5506 10.6663 31.6039 10.6375 33.4353 10.6728L34.5113 5.73749C33.0512 5.776 31.876 5.72145 29.9967 5.73749L30.2112 4.60154L31.0917 0.00321529H28.2772H27.8098C25.6037 -0.0513357 24.0765 0.744467 23.6859 2.99711L23.3208 4.86788L22.8117 7.75589C22.7829 7.91953 22.7574 8.07676 22.7285 8.21475L22.1938 11.3306C22.0786 11.9723 21.9409 12.72 21.7647 13.6987C21.7647 13.6987 21.7647 13.6987 21.7647 13.7244C21.5245 15.0753 21.2908 16.4295 21.0571 17.7548C20.737 19.5581 21.2204 21.0567 22.3827 21.9808C23.545 22.9051 25.418 23.3639 28.3125 23.396C32.795 23.4569 36.509 23.2836 36.509 23.2836C38.8369 23.1841 40.2905 22.074 40.5914 19.7763L43.153 5.70219H36.0801L33.589 18.2939Z" fill="#4D99FF"/>
<path d="M21.9247 26.098C21.828 25.9925 21.713 25.9055 21.5855 25.8412C21.4667 25.783 21.3364 25.7529 21.2044 25.7529C21.0723 25.7529 20.9421 25.783 20.8234 25.8412C20.7002 25.8982 20.5909 25.9814 20.5033 26.085C20.4086 26.1906 20.3356 26.3137 20.2886 26.4477C20.1863 26.7351 20.1863 27.0491 20.2886 27.3366C20.3392 27.4693 20.4129 27.5921 20.5063 27.6991C20.5948 27.8028 20.7039 27.8869 20.8265 27.9463C20.9492 28.0094 21.0855 28.0413 21.2236 28.0392C21.3543 28.0408 21.4833 28.0087 21.5982 27.9463C21.724 27.8818 21.8387 27.7972 21.9376 27.6959L22.1426 27.9012C22.0209 28.0357 21.874 28.1447 21.7102 28.2221C21.5603 28.3018 21.3933 28.3437 21.2236 28.3441C21.0481 28.3516 20.8735 28.3164 20.7145 28.2414C20.5572 28.1624 20.417 28.0534 20.3014 27.9205C20.1815 27.781 20.0852 27.6228 20.0164 27.4521C19.9458 27.2745 19.9099 27.0848 19.9109 26.8937C19.9113 26.7052 19.945 26.5185 20.0101 26.3417C20.0757 26.1737 20.17 26.0185 20.2886 25.8828C20.4042 25.7515 20.5433 25.6426 20.6985 25.562C20.857 25.4847 21.0313 25.4451 21.2076 25.4465C21.381 25.4468 21.5519 25.4874 21.707 25.5652C21.8692 25.6437 22.0149 25.7525 22.1361 25.8861L21.9247 26.098Z" fill="#4D99FF"/>
<path d="M25.9655 27.9463C25.8532 28.0718 25.7157 28.1723 25.5621 28.2414C25.4057 28.3101 25.2367 28.3451 25.0658 28.3441C24.8949 28.3468 24.7255 28.3117 24.5696 28.2414C24.4137 28.1617 24.2745 28.0529 24.1597 27.9205C24.0357 27.7847 23.938 27.6269 23.8716 27.4552C23.8037 27.2726 23.77 27.079 23.7723 26.884C23.77 26.6902 23.8035 26.4976 23.8716 26.3161C23.9381 26.1498 24.0334 25.9966 24.1533 25.8636C24.2666 25.7297 24.406 25.6205 24.5631 25.5427C24.7202 25.4681 24.892 25.4298 25.0658 25.4304C25.2438 25.4293 25.4198 25.4676 25.5814 25.5427C25.7356 25.6179 25.8746 25.7213 25.9912 25.8475C26.1133 25.9843 26.2079 26.1433 26.2697 26.3161C26.3388 26.4961 26.3725 26.688 26.3689 26.8808C26.374 27.0843 26.3403 27.2868 26.2697 27.4777C26.2006 27.6527 26.0971 27.812 25.9655 27.9463ZM25.7478 26.0529C25.6573 25.9581 25.5483 25.8827 25.4277 25.8315C25.3092 25.781 25.1819 25.7547 25.053 25.7546C24.9201 25.7539 24.7887 25.7836 24.6688 25.8412C24.5468 25.9002 24.438 25.9832 24.3487 26.085C24.2586 26.1921 24.1871 26.3136 24.1373 26.4444C24.0852 26.5872 24.0591 26.7383 24.0605 26.8905C24.0595 27.0425 24.0855 27.1936 24.1373 27.3364C24.1865 27.4707 24.2578 27.5954 24.3487 27.7056C24.4394 27.8061 24.5478 27.8888 24.6688 27.9494C24.7902 28.0096 24.924 28.0404 25.0595 28.0393C25.197 28.0408 25.333 28.0101 25.4564 27.9494C25.5774 27.8888 25.686 27.8061 25.7766 27.7056C25.8665 27.5952 25.9368 27.4705 25.9848 27.3364C26.0365 27.1936 26.0625 27.0425 26.0615 26.8905C26.0642 26.7303 26.036 26.5713 25.9783 26.4219C25.9286 26.2839 25.85 26.1582 25.7478 26.0529Z" fill="#4D99FF"/>
<path d="M30.0189 25.4658H30.2941V28.3088H29.9899V26.1043C29.8747 26.3064 29.7467 26.515 29.6282 26.746C29.5098 26.9772 29.3816 27.1665 29.2696 27.3654H29.0839L28.3539 26.1203V28.3248H28.0562V25.4658H28.3283L29.1831 26.9098L30.0189 25.4658Z" fill="#4D99FF"/>
<path d="M32.3916 27.5579C32.4045 27.6246 32.4331 27.6873 32.4748 27.7409C32.5216 27.8009 32.578 27.853 32.6414 27.8949C32.7157 27.9398 32.7953 27.9753 32.8784 28.0007C32.9693 28.0249 33.0627 28.0379 33.1569 28.0393C33.2488 28.0379 33.3403 28.0249 33.429 28.0007C33.5092 27.976 33.5856 27.9403 33.6564 27.8949C33.7206 27.8538 33.7769 27.8016 33.8229 27.7409C33.8649 27.6878 33.8925 27.6249 33.9029 27.5579V25.4658H34.2006V27.5643C34.1968 27.6699 34.166 27.7726 34.1111 27.8627C34.0532 27.9599 33.9769 28.0449 33.8869 28.1131C33.7895 28.1861 33.6816 28.2434 33.5667 28.2832C33.4363 28.325 33.3002 28.3455 33.1633 28.3441C33.0254 28.3453 32.8881 28.3246 32.7567 28.2832C32.6345 28.2469 32.5196 28.1892 32.4173 28.1131C32.3267 28.0459 32.2488 27.9633 32.1866 27.8692C32.1306 27.7777 32.0966 27.6745 32.0874 27.5676V25.4658H32.4076L32.3916 27.5579Z" fill="#4D99FF"/>
<path d="M36.253 25.4658L37.5337 27.6575V25.4658H37.8316V28.3088H37.5626L36.2818 26.1043V28.3088H35.9873V25.4658H36.253Z" fill="#4D99FF"/>
<path d="M39.9124 28.3088H39.6145V25.4658H39.9124V28.3088Z" fill="#4D99FF"/>
<path d="M43.5789 26.098C43.4795 25.9954 43.3651 25.9088 43.2395 25.8412C43.1195 25.7836 42.9882 25.7529 42.8553 25.7513C42.7212 25.7506 42.5887 25.7801 42.4677 25.838C42.3452 25.8956 42.2359 25.9789 42.1475 26.0819C42.0619 26.1894 41.9978 26.3126 41.9588 26.4444C41.9029 26.5865 41.8747 26.7378 41.8754 26.8905C41.8762 27.0413 41.9021 27.1911 41.9523 27.3334C42.0012 27.4659 42.0715 27.5896 42.1605 27.6991C42.2503 27.8013 42.3591 27.8852 42.4806 27.9463C42.6032 28.0097 42.7395 28.0416 42.8776 28.0392C43.0093 28.0406 43.1394 28.0085 43.2555 27.9463C43.3683 27.878 43.4708 27.7936 43.5596 27.6959L43.7646 27.9012C43.6434 28.0348 43.4977 28.1438 43.3355 28.2221C43.1829 28.3013 43.0141 28.3431 42.8424 28.3441C42.6713 28.3444 42.5026 28.3049 42.3492 28.2286C42.2017 28.1503 42.0694 28.0459 41.9588 27.9205C41.8388 27.781 41.7424 27.6228 41.6737 27.4521C41.603 27.2745 41.5671 27.0848 41.5681 26.8937C41.5686 26.7052 41.6022 26.5185 41.6674 26.3417C41.7329 26.1739 41.8272 26.0185 41.9458 25.8828C42.0619 25.7506 42.2022 25.6416 42.3589 25.562C42.5162 25.4845 42.6895 25.4451 42.8648 25.4465C43.0383 25.4461 43.2095 25.4867 43.3642 25.5652C43.5275 25.6435 43.6742 25.7525 43.7966 25.8861L43.5789 26.098Z" fill="#4D99FF"/>
<path d="M46.4409 25.4658H46.6651L47.7216 28.3088H47.4014L46.9852 27.1856H46.1207C46.076 27.3044 46.0343 27.4231 45.9863 27.5451C45.9383 27.667 45.8966 27.789 45.8486 27.914C45.8261 27.9751 45.7973 28.0425 45.7686 28.1131C45.7396 28.1837 45.7206 28.2479 45.6981 28.3088H45.3779L46.4409 25.4658ZM46.8731 26.884C46.8508 26.8119 46.8241 26.7411 46.7931 26.6723C46.7643 26.5985 46.7418 26.5278 46.7163 26.4637C46.7044 26.4231 46.6894 26.3834 46.6714 26.345C46.6714 26.3129 46.6491 26.2776 46.6361 26.2455C46.6234 26.2134 46.6074 26.1781 46.5946 26.1396C46.5818 26.101 46.5658 26.0657 46.5498 26.0144C46.5274 26.0657 46.5081 26.1235 46.4857 26.1781C46.4634 26.2327 46.4441 26.2936 46.4249 26.3417C46.3897 26.4381 46.3544 26.5246 46.3289 26.6017C46.3032 26.6786 46.268 26.7685 46.2264 26.8712L46.8731 26.884Z" fill="#4D99FF"/>
<path d="M51.4169 26.0979C51.3185 25.9898 51.2014 25.9006 51.071 25.8347C50.9522 25.7737 50.8205 25.7418 50.6868 25.7418C50.5532 25.7418 50.4215 25.7737 50.3027 25.8347C50.1801 25.8958 50.0713 25.9809 49.9823 26.085C49.8872 26.1926 49.8143 26.318 49.7679 26.4541C49.7144 26.5976 49.6884 26.7501 49.6911 26.9033C49.6887 27.0524 49.7148 27.2005 49.7679 27.3397C49.8125 27.4749 49.8843 27.5995 49.9793 27.7056C50.0666 27.812 50.1757 27.8985 50.2994 27.9591C50.4203 28.021 50.5542 28.0529 50.6901 28.052C50.8205 28.051 50.9488 28.0191 51.0645 27.9591C51.1898 27.8937 51.3035 27.8081 51.4009 27.7056L51.6186 27.9045C51.5051 28.0334 51.367 28.1382 51.2125 28.2126C51.0579 28.2869 50.8901 28.3296 50.7188 28.3376C50.7604 28.3657 50.7971 28.4004 50.8276 28.4403C50.8462 28.4589 50.861 28.4809 50.8708 28.5051C50.8807 28.5293 50.8856 28.5553 50.8853 28.5815C50.8804 28.6373 50.8579 28.69 50.8213 28.7323C50.7656 28.8004 50.6957 28.8552 50.6164 28.8929L50.2962 28.6522H50.3794H50.4884L50.5844 28.6329C50.6131 28.6329 50.6324 28.6073 50.6324 28.5911C50.6324 28.5751 50.6131 28.556 50.5811 28.5495C50.5536 28.5461 50.5255 28.5461 50.4979 28.5495H50.3954V28.3376C50.2559 28.2963 50.1238 28.2323 50.0048 28.1484C49.8816 28.0594 49.7735 27.9509 49.6846 27.8275C49.5929 27.7003 49.5216 27.5595 49.4734 27.4103C49.4196 27.2545 49.3936 27.0906 49.3965 26.9258C49.3954 26.729 49.4291 26.5335 49.4957 26.3482C49.5622 26.1807 49.6564 26.0254 49.7743 25.8893C49.8909 25.7605 50.0325 25.6568 50.1905 25.5845C50.3481 25.5082 50.5214 25.4697 50.6964 25.4721C50.8698 25.4721 51.0409 25.5128 51.1959 25.5908C51.3592 25.6691 51.5059 25.7781 51.6281 25.9118L51.4169 26.0979Z" fill="#4D99FF"/>
<path d="M54.3945 25.3951H54.6185L55.6655 28.2414H55.3453L54.9292 27.1152H54.0711C54.0294 27.237 53.9814 27.3557 53.9366 27.4809C53.8917 27.6061 53.8469 27.7216 53.7989 27.8436C53.7732 27.911 53.7477 27.9751 53.722 28.0457C53.6965 28.1164 53.6677 28.1805 53.6452 28.2414H53.3411L54.3945 25.3951ZM54.6794 25.2732C54.5959 25.2737 54.5132 25.2573 54.436 25.2251H54.3785H54.3113C54.258 25.2261 54.2051 25.2346 54.1543 25.2508C54.1023 25.2716 54.0529 25.2986 54.0071 25.331L53.8885 25.0998C53.9518 25.0572 54.0209 25.0238 54.0934 25.0004C54.1635 24.9765 54.2372 24.9646 54.3113 24.9651C54.3494 24.9598 54.3882 24.9598 54.4265 24.9651L54.5193 24.9844L54.5962 25.0069H54.6667C54.7254 25.0067 54.7838 24.997 54.8394 24.978C54.8922 24.9593 54.9411 24.931 54.9836 24.8946L55.0924 25.1321C55.0345 25.1795 54.9666 25.2135 54.8939 25.2315C54.8255 25.2581 54.7528 25.2723 54.6794 25.2732ZM54.8299 26.8166C54.8042 26.7493 54.7852 26.6819 54.753 26.6017C54.7239 26.5335 54.6982 26.4639 54.6762 26.3931C54.657 26.3482 54.641 26.3097 54.6282 26.2743L54.5865 26.1749C54.5865 26.1396 54.5642 26.1075 54.5482 26.0722C54.532 26.0369 54.5225 25.9953 54.5065 25.9439L54.4393 26.1107C54.4163 26.1638 54.3971 26.2186 54.3816 26.2743C54.3433 26.3707 54.3113 26.4572 54.2823 26.5343C54.2536 26.6113 54.2216 26.7012 54.1831 26.8071L54.8299 26.8166Z" fill="#4D99FF"/>
<path d="M59.4182 27.9463C59.3048 28.0723 59.1659 28.1732 59.0108 28.2417C58.8558 28.3103 58.6879 28.3451 58.5186 28.3441C58.348 28.3449 58.1797 28.3078 58.0255 28.2349C57.8667 28.1571 57.7251 28.048 57.6091 27.914C57.4861 27.7788 57.3904 27.6208 57.3274 27.4488C57.256 27.267 57.22 27.073 57.2217 26.8777C57.2222 26.6855 57.2582 26.4951 57.3274 26.3161C57.3918 26.1502 57.4851 25.997 57.6028 25.8636C57.7179 25.7315 57.857 25.6227 58.0127 25.5427C58.1719 25.468 58.3458 25.4296 58.5217 25.4304C58.6997 25.4293 58.8759 25.4676 59.0372 25.5427C59.1914 25.6179 59.3305 25.7213 59.4471 25.8475C59.5659 25.9814 59.6571 26.1374 59.716 26.3064C59.7836 26.4869 59.8173 26.6785 59.8153 26.8712C59.8151 27.0715 59.7805 27.2701 59.7128 27.4584C59.6474 27.6389 59.5474 27.8045 59.4182 27.9463ZM59.1972 26.0529C59.1082 25.9564 58.9988 25.8808 58.8771 25.8315C58.7596 25.7813 58.6333 25.7552 58.5057 25.7546C58.3727 25.7535 58.2413 25.7832 58.1215 25.8412C57.9991 25.8994 57.89 25.9823 57.8013 26.085C57.7091 26.1906 57.6374 26.3124 57.5901 26.4444C57.4835 26.7322 57.4835 27.0486 57.5901 27.3364C57.6355 27.4715 57.706 27.5969 57.7981 27.7056C57.8886 27.8062 57.9972 27.889 58.1182 27.9494C58.2401 28.0085 58.3736 28.0393 58.5089 28.0393C58.6442 28.0393 58.7778 28.0085 58.8995 27.9494C59.0211 27.8896 59.1297 27.8067 59.2197 27.7056C59.3128 27.5971 59.3845 27.4719 59.4311 27.3364C59.4828 27.1936 59.5089 27.0425 59.5079 26.8905C59.5091 26.7305 59.4808 26.5717 59.4246 26.4219C59.3746 26.2849 59.2971 26.1594 59.1972 26.0529Z" fill="#4D99FF"/>
</svg>
