<svg xmlns="http://www.w3.org/2000/svg" width="470" height="170" viewBox="0 0 470 170" fill="none"><path d="M121.208 37.3579C111.941 31.489 95.8952 28.5482 73.0715 28.5357C63.7471 28.5298 54.4332 29.1583 45.1941 30.4168C35.8828 31.6395 29.0921 32.7305 24.8409 33.6334L20.2323 58.3318H23.7875C30.3586 56.2197 37.0401 54.4677 43.8021 53.0836C49.5478 51.8405 55.3998 51.1539 61.2772 51.0333C71.9805 51.0333 79.881 52.1431 84.847 54.2687C89.8131 56.3943 91.7882 60.3446 90.7536 65.9878L90.6407 66.5709C78.6144 67.1729 67.328 68.0193 56.7815 69.1104C47.3073 69.9823 37.9655 71.9453 28.9416 74.9605C21.8571 77.2457 15.3682 81.0748 9.94283 86.1717C4.9568 91.1769 1.69529 97.6406 0.631536 104.625C-0.348528 108.763 -0.18539 113.089 1.1035 117.141C2.39239 121.194 4.75854 124.819 7.9489 127.63C22.0005 140.591 52.756 139.218 79.787 128.176C101.946 119.072 115.038 108.575 125.704 101.596L131.761 64.2572C133.792 52.1619 130.519 43.2833 121.208 37.3579ZM82.8531 107.24C74.3883 113.259 54.6371 120.257 45.7772 113.09C44.2889 111.718 43.1656 109.997 42.5088 108.082C41.852 106.168 41.6823 104.12 42.0151 102.123C42.577 99.056 44.1537 96.2668 46.492 94.2038C53.6213 87.7518 79.2791 85.9271 86.8033 85.8519L82.8531 107.24Z" fill="#4D99FF"></path><path d="M377.691 33.9722C368.003 33.6712 335.348 33.8781 335.348 33.8781L296.692 101.597L284.578 48.0238C283.431 38.7877 276.019 34.4048 264.244 33.3514H237.42L266.934 136.81H292.234C306.342 137.224 314.675 133.913 324.551 117.793L364.26 56.0936" fill="#4D99FF"></path><path d="M459.254 40.462C450.225 34.756 434.675 31.8968 412.604 31.8843C403.562 31.9245 394.533 32.5528 385.573 33.7653L383.428 34.0663L370.656 55.0214L367.402 60.0251C372.957 58.3321 378.557 56.9088 384.2 55.755C389.765 54.5455 395.435 53.8777 401.129 53.7611C411.513 53.7611 419.169 54.8333 423.984 56.9025C428.8 58.9717 430.719 62.8091 429.628 68.1889L429.515 68.7532C417.871 69.3176 406.942 70.164 396.671 71.2174C387.49 72.039 378.437 73.933 369.697 76.8606C362.845 79.0421 356.567 82.7243 351.319 87.6392C346.498 92.4909 343.343 98.7485 342.308 105.509C340.634 114.482 342.967 121.912 349.419 127.8C363.038 140.366 392.815 139.086 419.018 128.327C440.481 119.523 453.179 109.328 463.506 102.518L469.412 66.4019C471.444 54.7957 468.246 46.1428 459.254 40.462ZM422.084 108.18C413.883 114.031 394.828 120.821 386.137 113.824C384.707 112.491 383.628 110.824 382.998 108.973C382.368 107.122 382.206 105.144 382.526 103.214C383.077 100.243 384.607 97.5415 386.871 95.5397C393.812 89.2569 418.661 87.4887 425.922 87.4323L422.084 108.18Z" fill="#4D99FF"></path><path d="M239.979 0.0189193C226.679 -0.338484 217.406 4.32657 215.13 17.5317L212.948 28.4983H254.519L259.673 0.0189193H239.979Z" fill="#4D99FF"></path><path d="M197.336 107.24C197.336 107.24 192.765 107.24 185.222 107.334C179.579 107.334 175.083 107.56 171.453 106.017C168.217 104.663 164.681 100.995 165.602 94.3356C165.96 91.6269 166.505 88.4667 167.126 84.9303L171.039 62.3575C179.485 62.5268 185.673 62.3575 196.433 62.5644L202.754 33.6335C194.176 33.8593 187.272 33.5395 176.231 33.6335L177.491 26.9745L182.664 0.0188104H166.129H163.383C150.422 -0.300971 141.45 4.36408 139.155 17.5692L137.01 28.5358L134.019 45.4655C133.85 46.4248 133.7 47.3465 133.53 48.1554L130.389 66.4206C129.712 70.1827 128.903 74.5656 127.868 80.3029C127.868 80.3029 127.868 80.3029 127.868 80.4534C126.457 88.3727 125.084 96.3108 123.711 104.08C121.83 114.651 124.67 123.436 131.499 128.853C138.327 134.271 149.331 136.961 166.336 137.149C192.671 137.506 214.491 136.49 214.491 136.49C228.167 135.907 236.707 129.399 238.475 115.93L253.524 33.4266H211.971L197.336 107.24Z" fill="#4D99FF"></path><path d="M128.808 152.988C128.24 152.37 127.564 151.86 126.815 151.483C126.117 151.142 125.352 150.965 124.576 150.965C123.8 150.965 123.035 151.142 122.338 151.483C121.614 151.817 120.972 152.305 120.457 152.912C119.901 153.531 119.472 154.253 119.196 155.038C118.595 156.723 118.595 158.564 119.196 160.249C119.493 161.027 119.926 161.747 120.475 162.374C120.995 162.982 121.636 163.475 122.356 163.823C123.077 164.193 123.878 164.38 124.689 164.368C125.457 164.377 126.215 164.189 126.89 163.823C127.629 163.445 128.303 162.949 128.884 162.355L130.088 163.559C129.373 164.347 128.51 164.986 127.548 165.44C126.667 165.907 125.686 166.153 124.689 166.155C123.658 166.199 122.632 165.993 121.698 165.553C120.774 165.09 119.95 164.451 119.271 163.672C118.567 162.854 118.001 161.927 117.597 160.926C117.182 159.885 116.971 158.773 116.977 157.653C116.979 156.548 117.177 155.453 117.56 154.417C117.945 153.432 118.499 152.522 119.196 151.727C119.875 150.957 120.692 150.319 121.604 149.846C122.535 149.393 123.559 149.161 124.595 149.169C125.614 149.171 126.618 149.409 127.529 149.865C128.482 150.325 129.338 150.963 130.05 151.746L128.808 152.988Z" fill="#4D99FF"></path><path d="M152.547 163.823C151.887 164.559 151.079 165.148 150.177 165.553C149.258 165.956 148.265 166.161 147.261 166.155C146.257 166.171 145.262 165.965 144.346 165.553C143.43 165.086 142.612 164.448 141.938 163.672C141.209 162.876 140.635 161.951 140.245 160.944C139.846 159.874 139.648 158.739 139.662 157.596C139.648 156.46 139.845 155.331 140.245 154.267C140.636 153.292 141.196 152.394 141.9 151.614C142.566 150.829 143.385 150.189 144.308 149.733C145.231 149.296 146.24 149.071 147.261 149.075C148.307 149.068 149.341 149.293 150.29 149.733C151.196 150.174 152.013 150.78 152.698 151.52C153.415 152.322 153.971 153.254 154.334 154.267C154.74 155.322 154.938 156.447 154.917 157.577C154.947 158.77 154.749 159.957 154.334 161.076C153.928 162.102 153.32 163.036 152.547 163.823V163.823ZM151.268 152.724C150.736 152.168 150.096 151.726 149.387 151.426C148.691 151.13 147.943 150.976 147.186 150.975C146.405 150.971 145.633 151.145 144.929 151.483C144.212 151.829 143.573 152.315 143.048 152.912C142.519 153.54 142.099 154.252 141.806 155.019C141.5 155.856 141.347 156.742 141.355 157.634C141.349 158.525 141.502 159.411 141.806 160.248C142.095 161.035 142.514 161.766 143.048 162.412C143.581 163.001 144.218 163.486 144.929 163.841C145.642 164.194 146.428 164.375 147.224 164.368C148.032 164.377 148.831 164.197 149.556 163.841C150.267 163.486 150.905 163.001 151.437 162.412C151.965 161.765 152.378 161.034 152.66 160.248C152.964 159.411 153.117 158.525 153.111 157.634C153.127 156.695 152.961 155.763 152.622 154.887C152.33 154.078 151.868 153.341 151.268 152.724V152.724Z" fill="#4D99FF"></path><path d="M176.361 149.282H177.978V165.948H176.191V153.025C175.514 154.21 174.762 155.433 174.066 156.787C173.37 158.142 172.617 159.252 171.959 160.418H170.868L166.579 153.119V166.042H164.83V149.282H166.429L171.451 157.747L176.361 149.282Z" fill="#4D99FF"></path><path d="M190.3 161.546C190.376 161.937 190.544 162.305 190.789 162.619C191.064 162.971 191.395 163.276 191.768 163.522C192.204 163.785 192.672 163.993 193.16 164.142C193.694 164.284 194.243 164.36 194.796 164.368C195.336 164.36 195.874 164.284 196.395 164.142C196.866 163.997 197.315 163.788 197.731 163.522C198.108 163.281 198.439 162.975 198.709 162.619C198.956 162.308 199.118 161.939 199.179 161.546V149.282H200.928V161.584C200.906 162.203 200.725 162.805 200.402 163.333C200.062 163.903 199.614 164.401 199.085 164.801C198.513 165.229 197.879 165.565 197.204 165.798C196.438 166.043 195.638 166.163 194.834 166.155C194.024 166.162 193.217 166.041 192.445 165.798C191.727 165.585 191.052 165.247 190.451 164.801C189.919 164.407 189.461 163.923 189.096 163.371C188.767 162.835 188.567 162.23 188.513 161.603V149.282H190.394L190.3 161.546Z" fill="#4D99FF"></path><path d="M212.986 149.282L220.51 162.13V149.282H222.26V165.948H220.68L213.155 153.025V165.948H211.425V149.282H212.986Z" fill="#4D99FF"></path><path d="M234.485 165.948H232.735V149.282H234.485V165.948Z" fill="#4D99FF"></path><path d="M256.026 152.988C255.442 152.387 254.77 151.879 254.032 151.483C253.327 151.145 252.556 150.965 251.775 150.956C250.987 150.952 250.209 151.125 249.498 151.464C248.778 151.802 248.136 152.29 247.617 152.894C247.114 153.524 246.737 154.246 246.508 155.019C246.18 155.852 246.014 156.739 246.018 157.634C246.023 158.518 246.175 159.396 246.47 160.23C246.757 161.007 247.17 161.732 247.693 162.374C248.221 162.973 248.86 163.465 249.574 163.823C250.294 164.195 251.095 164.382 251.906 164.368C252.68 164.376 253.444 164.188 254.126 163.823C254.789 163.423 255.391 162.928 255.913 162.355L257.117 163.559C256.405 164.342 255.549 164.981 254.596 165.44C253.7 165.904 252.708 166.149 251.699 166.155C250.694 166.157 249.703 165.925 248.802 165.478C247.935 165.019 247.158 164.407 246.508 163.672C245.803 162.854 245.237 161.927 244.833 160.926C244.418 159.885 244.207 158.773 244.213 157.653C244.216 156.548 244.413 155.453 244.796 154.417C245.181 153.433 245.735 152.522 246.432 151.727C247.114 150.952 247.938 150.313 248.859 149.846C249.783 149.392 250.801 149.161 251.831 149.169C252.85 149.167 253.856 149.405 254.765 149.865C255.724 150.324 256.586 150.963 257.305 151.746L256.026 152.988Z" fill="#4D99FF"></path><path d="M272.84 149.282H274.157L280.364 165.948H278.483L276.038 159.364H270.959C270.696 160.06 270.451 160.756 270.169 161.471C269.887 162.186 269.642 162.901 269.36 163.634C269.228 163.992 269.059 164.387 268.89 164.801C268.72 165.215 268.608 165.591 268.476 165.948H266.595L272.84 149.282ZM275.379 157.596C275.248 157.173 275.091 156.758 274.909 156.355C274.74 155.922 274.608 155.508 274.458 155.132C274.388 154.894 274.3 154.661 274.194 154.436C274.194 154.248 274.063 154.041 273.987 153.853C273.912 153.665 273.818 153.458 273.743 153.232C273.668 153.006 273.574 152.799 273.48 152.498C273.348 152.799 273.235 153.138 273.103 153.458C272.972 153.778 272.859 154.135 272.746 154.417C272.539 154.982 272.332 155.489 272.182 155.941C272.031 156.392 271.824 156.919 271.58 157.521L275.379 157.596Z" fill="#4D99FF"></path><path d="M302.074 152.988C301.496 152.354 300.808 151.831 300.042 151.445C299.344 151.087 298.57 150.9 297.785 150.9C297 150.9 296.226 151.087 295.528 151.445C294.808 151.803 294.169 152.302 293.646 152.912C293.087 153.543 292.659 154.278 292.386 155.076C292.072 155.917 291.919 156.811 291.935 157.709C291.921 158.583 292.074 159.451 292.386 160.267C292.648 161.06 293.07 161.79 293.628 162.412C294.141 163.036 294.782 163.543 295.509 163.898C296.219 164.261 297.006 164.448 297.804 164.443C298.57 164.437 299.324 164.25 300.004 163.898C300.74 163.515 301.408 163.013 301.98 162.412L303.259 163.578C302.592 164.334 301.781 164.948 300.873 165.384C299.965 165.82 298.979 166.07 297.973 166.117C298.217 166.282 298.433 166.485 298.612 166.719C298.721 166.828 298.808 166.957 298.866 167.099C298.924 167.241 298.953 167.393 298.951 167.547C298.922 167.874 298.79 168.183 298.575 168.431C298.248 168.83 297.837 169.151 297.371 169.372L295.49 167.961H295.979H296.619L297.183 167.848C297.352 167.848 297.465 167.698 297.465 167.603C297.465 167.509 297.352 167.397 297.164 167.359C297.002 167.339 296.837 167.339 296.675 167.359H296.073V166.117C295.253 165.875 294.477 165.5 293.778 165.008C293.054 164.486 292.419 163.85 291.897 163.127C291.358 162.381 290.939 161.556 290.656 160.681C290.34 159.768 290.187 158.807 290.204 157.841C290.198 156.687 290.396 155.541 290.787 154.455C291.178 153.473 291.731 152.563 292.424 151.765C293.109 151.01 293.941 150.402 294.869 149.978C295.795 149.531 296.813 149.305 297.841 149.319C298.86 149.319 299.865 149.558 300.776 150.015C301.735 150.474 302.597 151.113 303.315 151.897L302.074 152.988Z" fill="#4D99FF"></path><path d="M319.568 148.868H320.884L327.035 165.553H325.154L322.709 158.951H317.668C317.423 159.665 317.141 160.361 316.878 161.095C316.614 161.829 316.351 162.506 316.069 163.221C315.918 163.616 315.768 163.992 315.617 164.406C315.467 164.82 315.298 165.196 315.166 165.553H313.379L319.568 148.868ZM321.242 148.153C320.751 148.156 320.265 148.06 319.812 147.871H319.474H319.079C318.766 147.877 318.455 147.927 318.157 148.022C317.851 148.144 317.561 148.302 317.292 148.492L316.595 147.137C316.967 146.887 317.373 146.691 317.799 146.554C318.211 146.414 318.644 146.344 319.079 146.347C319.303 146.316 319.531 146.316 319.756 146.347L320.301 146.46L320.753 146.592H321.167C321.512 146.591 321.855 146.534 322.182 146.423C322.492 146.313 322.779 146.147 323.029 145.934L323.668 147.326C323.328 147.604 322.929 147.803 322.502 147.909C322.1 148.065 321.673 148.148 321.242 148.153ZM322.126 157.201C321.975 156.806 321.863 156.411 321.674 155.941C321.503 155.541 321.352 155.133 321.223 154.718C321.11 154.455 321.016 154.229 320.941 154.022L320.696 153.439C320.696 153.232 320.565 153.044 320.471 152.837C320.376 152.63 320.32 152.386 320.226 152.085L319.831 153.063C319.696 153.374 319.583 153.695 319.492 154.022V154.022C319.267 154.587 319.079 155.094 318.909 155.546C318.74 155.997 318.552 156.524 318.326 157.145L322.126 157.201Z" fill="#4D99FF"></path><path d="M349.081 163.823C348.415 164.562 347.599 165.153 346.688 165.555C345.777 165.957 344.791 166.161 343.796 166.155C342.794 166.16 341.805 165.942 340.899 165.515C339.966 165.059 339.134 164.419 338.453 163.634C337.73 162.841 337.168 161.915 336.798 160.907C336.378 159.841 336.167 158.704 336.177 157.559C336.18 156.432 336.391 155.316 336.798 154.267C337.176 153.294 337.724 152.396 338.416 151.614C339.092 150.84 339.909 150.202 340.824 149.733C341.759 149.295 342.781 149.07 343.814 149.075C344.86 149.068 345.895 149.293 346.843 149.733C347.749 150.174 348.566 150.78 349.251 151.52C349.949 152.305 350.485 153.219 350.831 154.21C351.228 155.268 351.426 156.391 351.414 157.521C351.413 158.695 351.21 159.859 350.812 160.963C350.428 162.021 349.84 162.992 349.081 163.823V163.823ZM347.783 152.724C347.26 152.158 346.617 151.715 345.902 151.426C345.212 151.132 344.47 150.979 343.72 150.975C342.939 150.969 342.167 151.143 341.463 151.483C340.744 151.824 340.103 152.31 339.582 152.912C339.04 153.531 338.619 154.245 338.341 155.019C337.715 156.706 337.715 158.561 338.341 160.248C338.608 161.04 339.022 161.775 339.563 162.412C340.095 163.002 340.733 163.487 341.444 163.841C342.16 164.188 342.944 164.368 343.739 164.368C344.534 164.368 345.319 164.188 346.034 163.841C346.748 163.491 347.386 163.005 347.915 162.412C348.462 161.776 348.883 161.042 349.157 160.248C349.461 159.411 349.614 158.525 349.608 157.634C349.615 156.696 349.449 155.765 349.119 154.887C348.825 154.084 348.37 153.348 347.783 152.724V152.724Z" fill="#4D99FF"></path></svg>